<svg width="108" height="25" viewBox="0 0 108 25" fill="none" xmlns="http://www.w3.org/2000/svg">
<path d="M5.66363 0.32V24H0.479625V0.32H5.66363ZM14.7246 24H9.60463V0.32H14.7246L24.7086 15.392V0.32H29.8286V24H24.7086L14.7246 8.96V24Z" fill="#3D3D3D"/>
<path d="M33.8889 7.36C33.8889 3.232 37.0249 0.447998 41.6329 0.447998C45.9529 0.447998 48.9929 3.072 49.2489 6.912H46.2089C45.9529 4.576 44.2249 3.2 41.5049 3.2C38.6889 3.2 36.8969 4.672 36.8969 7.04C36.8969 8.8 37.8249 9.888 39.9369 10.592L43.3609 11.744C46.5289 12.8 48.0009 14.624 48.0009 17.472C48.0009 21.6 44.7369 24.416 39.9049 24.416C35.2009 24.416 32.3849 22.112 32.0329 17.952H35.1049C35.3289 20.32 37.0889 21.664 40.0009 21.664C43.0409 21.664 45.0249 20.096 45.0249 17.696C45.0249 16 44.2569 15.072 42.2729 14.4L38.8809 13.28C35.5529 12.224 33.8889 10.24 33.8889 7.36ZM59.8131 15.744H54.2451L52.9331 24H49.9251L53.5731 0.863998H61.7331C65.7651 0.863998 68.5171 3.488 68.5171 7.392C68.5171 12.384 65.0291 15.744 59.8131 15.744ZM61.0291 3.584H56.1651L54.6611 13.024H59.6531C63.2371 13.024 65.4131 11.008 65.4131 7.616C65.4131 5.152 63.7171 3.584 61.0291 3.584ZM82.4046 24H68.6126L72.2606 0.863998H86.0526L85.6046 3.68H74.8526L73.6686 11.008H83.3646L82.9486 13.728H73.2206L72.0366 21.184H82.8526L82.4046 24ZM96.0356 24.352C90.0836 24.352 86.3716 20.192 86.3716 14.144C86.3716 6.208 91.6196 0.48 98.7236 0.48C103.908 0.48 107.492 3.712 107.748 8.32H104.58C104.164 5.216 101.7 3.392 98.4676 3.392C93.1556 3.392 89.5396 7.904 89.5396 14.016C89.5396 18.496 92.0676 21.408 96.1316 21.408C99.5876 21.408 101.956 19.968 103.396 16.672H106.724C104.868 21.76 101.188 24.352 96.0356 24.352Z" fill="#474747"/>
</svg>
